<?xml version="1.0" encoding="utf-8"?>
<svg version="1.1" xmlns="http://www.w3.org/2000/svg" xmlns:xlink="http://www.w3.org/1999/xlink" x="0px" y="0px" viewBox="0 0 1000 1000" enable-background="new 0 0 1000 1000" xml:space="preserve" fill="#fff">
<g><path d="M799.2,427.7L473,819.1l-237.9-204l39.8-46.5l190.8,163.5l286.4-343.7L799.2,427.7L799.2,427.7z M132.5,759.3c0,93.4,69.6,169.5,155.1,169.5h424.7c85.6,0,155.2-76,155.2-169.5V332.6c0-82.8-54.7-151.9-126.8-166.5c3.9,28.5,4.3,51.5,4.3,58.3h30.6v61.3H224.4v-61.3H255c0-6.8,0.3-29.8,4.3-58.3c-72,14.6-126.8,83.6-126.8,166.5V759.3L132.5,759.3z M928.8,332.6v426.7c0,127.2-97.1,230.7-216.4,230.7H287.7C168.3,990,71.3,886.5,71.3,759.3V332.6c0-122.3,89.7-222.3,202.6-230C290.1,54.2,320.5,10,377.5,10h245c57,0,87.4,44.2,103.7,92.6C839,110.3,928.8,210.3,928.8,332.6L928.8,332.6L928.8,332.6z M683.8,224.4c-0.1-50-15.2-153.1-61.2-153.1h-245c-46.1,0-61.2,103.1-61.3,153.1H683.8L683.8,224.4z"/></g>
</svg>
