<?xml version="1.0" encoding="utf-8"?>
<svg version="1.1" xmlns="http://www.w3.org/2000/svg" xmlns:xlink="http://www.w3.org/1999/xlink" x="0px" y="0px" viewBox="0 0 1000 1000" enable-background="new 0 0 1000 1000" xml:space="preserve" fill="#fff">
<g><path d="M338,294.8c-22,0-39.5-17.8-39.5-39.5c0-21.7,17.5-39.3,39.5-39.3h438c58.7,0,112.2,24.2,151.2,62.7c39,39,62.9,92.7,62.9,151.4v139.8c0,59-23.9,112.5-62.9,151.4c-39,38.4-92.4,62.6-151.2,62.6H338c-59,0-112.5-24.2-151.4-62.6l0,0c-34.5-35.1-57.9-81.8-61.8-133.1H33.4c-12.8,0-23.4-10.9-23.4-23.7c0-6.4,2.8-12.5,7.2-16.4l64.3-64.9l64.9-64.6c8.9-9.2,23.7-9.2,32.8,0h0.5l64.6,64.6l64.3,64.9c9.2,8.9,9.2,23.9,0,33.4c-5,4.4-11.7,7.2-18.4,6.7h-87.1c3.9,29.8,18.1,57.1,38.4,77.4h0.3c24.8,24.5,58.8,39.8,96,39.8h438c37,0,71-15.3,95.5-39.8c24.8-24.5,40.1-58.5,40.1-95.8V430.1c0-37.3-15.3-71.3-40.1-95.8c-24.5-24.8-58.5-39.5-95.5-39.5L338,294.8L338,294.8z M135.8,541.5L135.8,541.5c7.2-6.7,16.7-10.8,27-10.8c10.3,0,19.8,4.2,26.7,10.8h45.7L211,516.7v-0.3l0,0l-48.2-47.9l-48.2,47.9v0.3l-24.5,24.8H135.8L135.8,541.5z"/></g>
</svg>
